<?xml version="1.0" encoding="UTF-8"?>
<!--Generator: Apple Native CoreSVG 232.5-->
<!DOCTYPE svg
PUBLIC "-//W3C//DTD SVG 1.1//EN"
       "http://www.w3.org/Graphics/SVG/1.1/DTD/svg11.dtd">
<svg version="1.1" xmlns="http://www.w3.org/2000/svg" xmlns:xlink="http://www.w3.org/1999/xlink" width="41.0781" height="40.7344">
 <g>
  <rect height="40.7344" opacity="0" width="41.0781" x="0" y="0"/>
  <path d="M20.3438 40.7031C31.4844 40.7031 40.7031 31.4844 40.7031 20.3594C40.7031 9.21875 31.4688 0 20.3281 0C9.20312 0 0 9.21875 0 20.3594C0 31.4844 9.21875 40.7031 20.3438 40.7031Z" fill="#ff453a"/>
  <path d="M15.375 11.1875C17.5938 11.1875 19.3281 12.4844 20.3438 14.3125C21.3594 12.4844 23.125 11.1875 25.3125 11.1875C28.7812 11.1875 31.3125 13.8281 31.3125 17.4375C31.3125 22.9844 25.2812 27.9219 21.2969 30.5938C20.9844 30.8125 20.625 31.0469 20.375 31.0469C20.1406 31.0469 19.7188 30.8125 19.3906 30.5938C15.3281 28.0312 9.375 22.9844 9.375 17.4375C9.375 13.8281 11.9062 11.1875 15.375 11.1875Z" fill="#ffffff"/>
 </g>
</svg>
